<svg width="64" height="64" viewBox="0 0 64 64" fill="none" xmlns="http://www.w3.org/2000/svg">
  <rect width="64" height="64" rx="10" fill="#050807"/>
  <rect x="8" y="8" width="48" height="48" rx="7" fill="#32F59A"/>
  <path d="M18 43V21h9.1c3.7 0 6.7.9 9 2.8 2.3 1.8 3.5 4.5 3.5 8.1 0 3.5-1.2 6.2-3.6 8.2-2.4 1.9-5.4 2.9-9 2.9H18Zm6.4-5.5h2.4c1.9 0 3.4-.4 4.5-1.3 1.1-.9 1.7-2.3 1.7-4.3 0-2.1-.6-3.5-1.7-4.3-1.1-.8-2.6-1.2-4.5-1.2h-2.4v11.1Z" fill="#04100B"/>
  <path d="M42.5 43V21H49v22h-6.5Z" fill="#04100B"/>
</svg>
